<svg xmlns="http://www.w3.org/2000/svg" viewBox="0 0 136.47 137.12"><defs><style>.cls-1,.cls-2{fill:#e30613;stroke:#1d1d1b;stroke-miterlimit:10;}.cls-1{stroke-width:0.75px;}.cls-2{stroke-width:2px;}</style></defs><title>Fichier 9</title><g id="Calque_2" data-name="Calque 2"><g id="Calque_1-2" data-name="Calque 1"><path class="cls-1" d="M38.75.71c.07.16,1.22,2.43,2.56,5.08l2.49,4.76-2.31,3.09C37.72,18.69,26.76,32.2,24.89,34a7.3,7.3,0,0,0-2.4,4.05c-.37,1.28-.78,2.62-.93,3s-5,5.86-10.72,12.21S.38,65,.38,65.1s4.32,1.37,5.2,1.34A18.67,18.67,0,0,0,8.51,63.7c2.64-2.81,2.64-2.68.06,1.43a10.38,10.38,0,0,0-1,1.9c0,.38,2.24,3.24,3.68,4.77a5.09,5.09,0,0,0,2.52,1.49c1.31.31,1.74.25,4.08-.5C20.4,72,20.62,72,26,72.14c3,.09,5.52.12,5.52.09s-1.84-1.18-4.08-2.52l-4.05-2.4.53-.81c3.36-5.32,6.29-7.82,10.87-9.41,4.42-1.52,7.32-.28,8.81,3.77,1.34,3.62,2,9.75,1.44,12.71-.19.94-.25,1-1.81,1-.87,0-2.52.09-3.71.22l-2.09.18,2.78,1.56L43,78.06l-.56,1.12c-.59,1.12-.59,1.15.19,3.58,1,3.15,2.86,5.2,5.42,5.92,4.48,1.25,13.24,1.43,16.79.34,1.8-.56,1.71-.84-.47-1.24a18.08,18.08,0,0,1-5.76-2.56l-.75-.65,2.15.16c2.49.18,4.48-.25,5.61-1.25l.81-.69h-2.9c-3.27,0-4.61-.53-6.39-2.39s-2.43-3.74-2.43-7.26c0-2.87.1-3.31,1-5.17a12.62,12.62,0,0,1,4.76-5.52c1.25-.71,1.78-.84,3.93-.84a7.89,7.89,0,0,1,3.68.59c6.16,3.06,11,14.68,10.4,24.89A24.6,24.6,0,0,1,75.7,97.56a17.3,17.3,0,0,1-4.24,6l-2.71,2.74,2.4-.9c11.18-4.15,18.13-11.62,21-22.68a54.37,54.37,0,0,0,.74-16.07,77.73,77.73,0,0,0-1.46-7.89c-.16-.43-.12-.43.12-.06a64.9,64.9,0,0,1,2.28,9.91c.53,3.89.19,13-.62,16C90.21,96,82.71,104,70.68,108.8a28.86,28.86,0,0,0-4.36,2.4c-6.95,4.68-16.57,8.23-25.92,9.6a74.8,74.8,0,0,1-17.44,0,72,72,0,0,1-12.31-3,13.91,13.91,0,0,0-2.74-.78c-.25.25,4.68,4.08,8.66,6.76a76.77,76.77,0,0,0,56.82,11.62,74,74,0,0,0,21.25-7.29c3.74-2,10-5.86,10.68-6.7a94.43,94.43,0,0,0,4.05-11.09c3.83-13.24,4.27-26.51,1.31-38.1C107.13,58.56,99,46,87,35.48L85.26,34l2,1.5a88.82,88.82,0,0,1,11.31,11c15.11,18,19.78,39.94,13.68,64.08-.53,2-1.16,4.3-1.44,5a3.71,3.71,0,0,0-.31,1.52c.28.28,6.42-6.13,9-9.37a78.92,78.92,0,0,0,16-36.2c.74-4.49.84-20.37.12-21.65s-5-5.89-8.44-8.94c-13.74-12.4-30.37-20.59-51.4-25.3l-1.4-.31,1.56.16c.87.09,3.39.56,5.6,1.06,19.6,4.33,36.23,12.8,50.4,25.64,3.37,3,3.18,3.11,2.19-.88a78.41,78.41,0,0,0-18-33.7C114.17,5.54,114,5.42,112,5c-15-3.4-34.24-4.27-48.29-2.21-4.08.62-8.28,1.43-8.53,1.68a8,8,0,0,0,1.21,2.52,65.34,65.34,0,0,1,7.11,16c1.18,4.61.93,5.11-.5.94C58.88,12,52.58,2.49,47.72.93,45.89.34,38.57.15,38.75.71Z"/><path class="cls-2" d="M32.12,37.47C33.26,38.56,36,32.75,36,32.75l-5,4.33,2.1,1.48"/></g></g></svg>